# xmcd
#
# Track frame offsets:
# 150
# 20218
# 36612
# 57273
# 73457
# 89812
# 106283
# 123764
# 145611
# 164291
# 182762
#
# Disc length: 2727 seconds
#
# Revision: 0
# Processed by: cddbd v1.4PL0 Copyright (c) Steve Scherf et al.
# Submitted via: Audion 3.0.2 (http://www.panic.com/audion/)
#
DISCID=a50aa50b
DTITLE=sdfg - dfg
DYEAR=1900
DGENRE=
TTITLE0=sdfg
TTITLE1=sdfg
TTITLE2=sdfgsd
TTITLE3=sdfg
TTITLE4=sdfg
TTITLE5=sdfg
TTITLE6=sdfg
TTITLE7=sdfg
TTITLE8=sdfg
TTITLE9=sdfg
TTITLE10=sdfg
EXTD=
EXTT0=
EXTT1=
EXTT2=
EXTT3=
EXTT4=
EXTT5=
EXTT6=
EXTT7=
EXTT8=
EXTT9=
EXTT10=
PLAYORDER=
